AdventPro-reg_wd.ufo
<glyph name="quotedbl" format="1">
  <advance width="267" height="962"/>
  <unicode hex="0022"/>
  <outline>
    <contour>
      <point x="167" y="703" type="line"/>
      <point x="167" y="750"/>
      <point x="235" y="750"/>
      <point x="235" y="703" type="curve"/>
      <point x="221" y="588" type="line"/>
      <point x="181" y="588" type="line"/>
    </contour>
    <contour>
      <point x="31" y="703" type="line"/>
      <point x="31" y="750"/>
      <point x="100" y="750"/>
      <point x="100" y="703" type="curve"/>
      <point x="84" y="588" type="line"/>
      <point x="45" y="588" type="line"/>
    </contour>
  </outline>
</glyph>
<glyph name="percent" format="1">
  <advance width="1070" height="962"/>
  <unicode hex="0025"/>
  <outline>
    <contour>
      <point x="72" y="0" type="line"/>
      <point x="881" y="700" type="line"/>
      <point x="977" y="700" type="line"/>
      <point x="174" y="0" type="line"/>
    </contour>
    <contour>
      <point x="264" y="714" type="curve" smooth="yes"/>
      <point x="384" y="714"/>
      <point x="482" y="650"/>
      <point x="482" y="568" type="curve" smooth="yes"/>
      <point x="482" y="488"/>
      <point x="384" y="422"/>
      <point x="264" y="422" type="curve" smooth="yes"/>
      <point x="143" y="422"/>
      <point x="44" y="488"/>
      <point x="44" y="568" type="curve" smooth="yes"/>
      <point x="44" y="650"/>
      <point x="143" y="714"/>
    </contour>
    <contour>
      <point x="264" y="663" type="curve" smooth="yes"/>
      <point x="186" y="663"/>
      <point x="120" y="619"/>
      <point x="120" y="568" type="curve" smooth="yes"/>
      <point x="120" y="518"/>
      <point x="186" y="474"/>
      <point x="264" y="474" type="curve" smooth="yes"/>
      <point x="341" y="474"/>
      <point x="405" y="518"/>
      <point x="405" y="568" type="curve" smooth="yes"/>
      <point x="405" y="619"/>
      <point x="341" y="663"/>
    </contour>
    <contour>
      <point x="804" y="277" type="curve" smooth="yes"/>
      <point x="926" y="277"/>
      <point x="1022" y="212"/>
      <point x="1022" y="132" type="curve" smooth="yes"/>
      <point x="1022" y="51"/>
      <point x="926" y="-14"/>
      <point x="804" y="-14" type="curve" smooth="yes"/>
      <point x="686" y="-14"/>
      <point x="587" y="51"/>
      <point x="587" y="132" type="curve" smooth="yes"/>
      <point x="587" y="212"/>
      <point x="686" y="277"/>
    </contour>
    <contour>
      <point x="804" y="227" type="curve" smooth="yes"/>
      <point x="728" y="227"/>
      <point x="663" y="186"/>
      <point x="663" y="132" type="curve" smooth="yes"/>
      <point x="663" y="79"/>
      <point x="728" y="37"/>
      <point x="804" y="37" type="curve" smooth="yes"/>
      <point x="885" y="37"/>
      <point x="947" y="79"/>
      <point x="947" y="132" type="curve" smooth="yes"/>
      <point x="947" y="186"/>
      <point x="885" y="227"/>
    </contour>
  </outline>
</glyph>
<glyph name="parenright" format="2">
  <advance width="273"/>
  <unicode hex="0029"/>
  <outline>
    <contour>
      <point x="26" y="780" type="line"/>
      <point x="110" y="756"/>
      <point x="159" y="708"/>
      <point x="159" y="637" type="curve" smooth="yes"/>
      <point x="159" y="62" type="line" smooth="yes"/>
      <point x="159" y="-11"/>
      <point x="105" y="-49"/>
      <point x="26" y="-81" type="curve"/>
      <point x="53" y="-120" type="line"/>
      <point x="130" y="-82"/>
      <point x="212" y="-58"/>
      <point x="212" y="70" type="curve" smooth="yes"/>
      <point x="212" y="627" type="line" smooth="yes"/>
      <point x="212" y="728"/>
      <point x="160" y="779"/>
      <point x="53" y="818" type="curve"/>
    </contour>
  </outline>
</glyph>
<glyph name="asterisk" format="1">
  <advance width="353" height="962"/>
  <unicode hex="002A"/>
  <outline>
    <contour>
      <point x="41" y="627" type="line"/>
      <point x="146" y="587" type="line"/>
      <point x="146" y="700" type="line"/>
      <point x="200" y="700" type="line"/>
      <point x="200" y="587" type="line"/>
      <point x="307" y="627" type="line"/>
      <point x="328" y="579" type="line"/>
      <point x="219" y="541" type="line"/>
      <point x="285" y="451" type="line"/>
      <point x="244" y="419" type="line"/>
      <point x="175" y="516" type="line"/>
      <point x="110" y="419" type="line"/>
      <point x="64" y="451" type="line"/>
      <point x="130" y="541" type="line"/>
      <point x="23" y="579" type="line"/>
    </contour>
  </outline>
</glyph>
<glyph name="comma" format="1">
  <advance width="267" height="962"/>
  <unicode hex="002C"/>
  <outline>
    <contour>
      <point x="99" y="-85" type="line"/>
      <point x="120" y="-59"/>
      <point x="127" y="-32"/>
      <point x="130" y="-10" type="curve"/>
      <point x="114" y="-8"/>
      <point x="102" y="7"/>
      <point x="102" y="23" type="curve" smooth="yes"/>
      <point x="102" y="42"/>
      <point x="116" y="56"/>
      <point x="135" y="56" type="curve" smooth="yes"/>
      <point x="153" y="56"/>
      <point x="167" y="43"/>
      <point x="169" y="23" type="curve"/>
      <point x="169" y="-40"/>
      <point x="135" y="-80"/>
      <point x="116" y="-98" type="curve"/>
    </contour>
  </outline>
</glyph>
<glyph name="one" format="2">
  <advance width="300"/>
  <unicode hex="0031"/>
  <outline>
    <contour>
      <point x="8" y="622" type="line"/>
      <point x="5" y="622"/>
      <point x="134" y="644"/>
      <point x="200" y="700" type="curve"/>
      <point x="258" y="700" type="line"/>
      <point x="258" y="0" type="line"/>
      <point x="201" y="0" type="line"/>
      <point x="201" y="636" type="line"/>
      <point x="165" y="616"/>
      <point x="71" y="589"/>
      <point x="20" y="583" type="curve"/>
    </contour>
  </outline>
</glyph>
<glyph name="greater" format="2">
  <advance width="563" height="962"/>
  <unicode hex="003E"/>
  <outline>
    <contour>
      <point x="73" y="597" type="line"/>
      <point x="102" y="637" type="line"/>
      <point x="519" y="359" type="line"/>
      <point x="102" y="79" type="line"/>
      <point x="71" y="121" type="line"/>
      <point x="425" y="359" type="line"/>
    </contour>
  </outline>
</glyph>
<glyph name="E" format="1">
  <advance width="571" height="962"/>
  <unicode hex="0045"/>
  <outline>
    <contour>
      <point x="42" y="0" type="line"/>
      <point x="42" y="700" type="line"/>
      <point x="543" y="700" type="line"/>
      <point x="543" y="648" type="line"/>
      <point x="100" y="648" type="line"/>
      <point x="100" y="412" type="line"/>
      <point x="455" y="412" type="line"/>
      <point x="438" y="357" type="line"/>
      <point x="100" y="357" type="line"/>
      <point x="100" y="50" type="line"/>
      <point x="540" y="50" type="line"/>
      <point x="540" y="0" type="line"/>
    </contour>
  </outline>
</glyph>
<glyph name="I" format="2">
  <advance width="234"/>
  <unicode hex="0049"/>
  <outline>
    <contour>
      <point x="16" y="651" type="line"/>
      <point x="16" y="700" type="line"/>
      <point x="192" y="700" type="line"/>
      <point x="192" y="0" type="line"/>
      <point x="135" y="0" type="line"/>
      <point x="135" y="649" type="line"/>
    </contour>
  </outline>
</glyph>
<glyph name="J" format="2">
  <advance width="252"/>
  <unicode hex="004A"/>
  <outline>
    <contour>
      <point x="207" y="129" type="line" smooth="yes"/>
      <point x="207" y="37"/>
      <point x="170" y="-37"/>
      <point x="30" y="-37" type="curve"/>
      <point x="21" y="0" type="line"/>
      <point x="87" y="0"/>
      <point x="149" y="35"/>
      <point x="149" y="124" type="curve" smooth="yes"/>
      <point x="149" y="649" type="line"/>
      <point x="33" y="651" type="line"/>
      <point x="33" y="700" type="line"/>
      <point x="207" y="700" type="line"/>
    </contour>
  </outline>
</glyph>
<glyph name="M" format="1">
  <advance width="880" height="962"/>
  <unicode hex="004D"/>
  <outline>
    <contour>
      <point x="99" y="700" type="line"/>
      <point x="437" y="76" type="line"/>
      <point x="780" y="700" type="line"/>
      <point x="837" y="700" type="line"/>
      <point x="837" y="0" type="line"/>
      <point x="780" y="0" type="line"/>
      <point x="780" y="575" type="line"/>
      <point x="461" y="0" type="line"/>
      <point x="414" y="0" type="line"/>
      <point x="99" y="575" type="line"/>
      <point x="99" y="0" type="line"/>
      <point x="41" y="0" type="line"/>
      <point x="41" y="700" type="line"/>
    </contour>
  </outline>
</glyph>
<glyph name="Q" format="1">
  <advance width="701" height="962"/>
  <unicode hex="0051"/>
  <outline>
    <component base="O"/>
    <contour>
      <point x="393" y="50" type="line" smooth="yes"/>
      <point x="393" y="-33"/>
      <point x="464" y="-61"/>
      <point x="594" y="-61" type="curve"/>
      <point x="585" y="-108" type="line"/>
      <point x="411" y="-108"/>
      <point x="336" y="-62"/>
      <point x="336" y="51" type="curve" smooth="yes"/>
      <point x="336" y="174" type="line"/>
      <point x="393" y="174" type="line"/>
    </contour>
  </outline>
</glyph>
<glyph name="T" format="2">
  <advance width="618"/>
  <unicode hex="0054"/>
  <outline>
    <contour>
      <point x="333" y="650" type="line"/>
      <point x="333" y="0" type="line"/>
      <point x="276" y="0" type="line"/>
      <point x="276" y="650" type="line"/>
      <point x="6" y="650" type="line"/>
      <point x="6" y="700" type="line"/>
      <point x="609" y="700" type="line"/>
      <point x="609" y="650" type="line"/>
    </contour>
  </outline>
</glyph>
<glyph name="U" format="1">
  <advance width="707" height="962"/>
  <unicode hex="0055"/>
  <outline>
    <contour>
      <point x="668" y="186" type="line" smooth="yes"/>
      <point x="668" y="58"/>
      <point x="539" y="-11"/>
      <point x="355" y="-11" type="curve" smooth="yes"/>
      <point x="167" y="-11"/>
      <point x="38" y="56"/>
      <point x="38" y="186" type="curve" smooth="yes"/>
      <point x="38" y="700" type="line"/>
      <point x="96" y="700" type="line"/>
      <point x="96" y="187" type="line" smooth="yes"/>
      <point x="96" y="91"/>
      <point x="215" y="42"/>
      <point x="353" y="42" type="curve" smooth="yes"/>
      <point x="491" y="42"/>
      <point x="611" y="90"/>
      <point x="611" y="187" type="curve" smooth="yes"/>
      <point x="611" y="700" type="line"/>
      <point x="668" y="700" type="line"/>
    </contour>
  </outline>
</glyph>
<glyph name="X" format="1">
  <advance width="808" height="962"/>
  <unicode hex="0058"/>
  <outline>
    <contour>
      <point x="405" y="406" type="line"/>
      <point x="680" y="700" type="line"/>
      <point x="757" y="700" type="line"/>
      <point x="443" y="364" type="line"/>
      <point x="783" y="0" type="line"/>
      <point x="703" y="0" type="line"/>
      <point x="405" y="322" type="line"/>
      <point x="103" y="0" type="line"/>
      <point x="25" y="0" type="line"/>
      <point x="365" y="364" type="line"/>
      <point x="52" y="700" type="line"/>
      <point x="128" y="700" type="line"/>
    </contour>
  </outline>
</glyph>
<glyph name="Z" format="2">
  <advance width="783"/>
  <unicode hex="005A"/>
  <outline>
    <contour>
      <point x="40" y="700" type="line"/>
      <point x="745" y="700" type="line"/>
      <point x="745" y="650.98" type="line"/>
      <point x="129.454" y="72.9633" type="line"/>
      <point x="104" y="50" type="line"/>
      <point x="752" y="49" type="line"/>
      <point x="752" y="0" type="line"/>
      <point x="22" y="0" type="line"/>
      <point x="22" y="49.0196" type="line"/>
      <point x="632.791" y="626.179" type="line"/>
      <point x="659" y="650" type="line"/>
      <point x="40" y="651" type="line"/>
    </contour>
  </outline>
</glyph>
<glyph name="backslash" format="1">
  <advance width="621" height="962"/>
  <unicode hex="005C"/>
  <outline>
    <contour>
      <point x="504" y="-114" type="line"/>
      <point x="24" y="818" type="line"/>
      <point x="108" y="818" type="line"/>
      <point x="596" y="-114" type="line"/>
    </contour>
  </outline>
</glyph>
<glyph name="bracketright" format="2">
  <advance width="338"/>
  <unicode hex="005D"/>
  <outline>
    <contour>
      <point x="30" y="-114" type="line"/>
      <point x="30" y="-69" type="line"/>
      <point x="189" y="-59" type="line"/>
      <point x="189" y="762" type="line"/>
      <point x="30" y="772" type="line"/>
      <point x="30" y="818" type="line"/>
      <point x="273" y="818" type="line"/>
      <point x="273" y="-114" type="line"/>
    </contour>
  </outline>
</glyph>
<glyph name="a" format="2">
  <advance width="641" height="962"/>
  <unicode hex="0061"/>
  <outline>
    <contour>
      <point x="547" y="351" type="curve"/>
      <point x="547" y="450"/>
      <point x="410" y="466"/>
      <point x="289" y="466" type="curve"/>
      <point x="292" y="509" type="line"/>
      <point x="535" y="509"/>
      <point x="604" y="469"/>
      <point x="604" y="308" type="curve" smooth="yes"/>
      <point x="604" y="0" type="line"/>
      <point x="607" y="0"/>
      <point x="440" y="-9"/>
      <point x="367" y="-10" type="curve" smooth="yes"/>
      <point x="175" y="-14"/>
      <point x="26" y="1"/>
      <point x="26" y="159" type="curve" smooth="yes"/>
      <point x="26" y="256" type="line" smooth="yes"/>
      <point x="26" y="378"/>
      <point x="137" y="403"/>
      <point x="257" y="403" type="curve" smooth="yes"/>
      <point x="355" y="403"/>
      <point x="478" y="378"/>
    </contour>
    <contour>
      <point x="547" y="304" type="line"/>
      <point x="467" y="332"/>
      <point x="344" y="355"/>
      <point x="250" y="355" type="curve" smooth="yes"/>
      <point x="197" y="355"/>
      <point x="82" y="355"/>
      <point x="82" y="254" type="curve" smooth="yes"/>
      <point x="82" y="166" type="line" smooth="yes"/>
      <point x="82" y="60"/>
      <point x="160" y="32"/>
      <point x="361" y="38" type="curve" smooth="yes"/>
      <point x="460" y="41"/>
      <point x="547" y="47"/>
      <point x="547" y="46" type="curve"/>
    </contour>
  </outline>
</glyph>
<glyph name="g" format="2">
  <advance width="623"/>
  <unicode hex="0067"/>
  <outline>
    <contour>
      <point x="584" y="-64" type="line" smooth="yes"/>
      <point x="584" y="-145"/>
      <point x="536" y="-187"/>
      <point x="422" y="-211" type="curve"/>
      <point x="407" y="-168" type="line"/>
      <point x="473" y="-150"/>
      <point x="527" y="-117"/>
      <point x="527" y="-63" type="curve" smooth="yes"/>
      <point x="527" y="61" type="line"/>
      <point x="490" y="18"/>
      <point x="379" y="-12"/>
      <point x="287" y="-12" type="curve" smooth="yes"/>
      <point x="119" y="-12"/>
      <point x="29" y="42"/>
      <point x="29" y="166" type="curve" smooth="yes"/>
      <point x="29" y="355" type="line" smooth="yes"/>
      <point x="29" y="461"/>
      <point x="120" y="515"/>
      <point x="285" y="510" type="curve" smooth="yes"/>
      <point x="357" y="508"/>
      <point x="461" y="489"/>
      <point x="527" y="453" type="curve"/>
      <point x="527" y="500" type="line"/>
      <point x="584" y="500" type="line"/>
    </contour>
    <contour>
      <point x="527" y="393" type="line"/>
      <point x="487" y="434"/>
      <point x="366" y="456"/>
      <point x="303" y="460" type="curve" smooth="yes"/>
      <point x="210" y="466"/>
      <point x="87" y="442"/>
      <point x="87" y="352" type="curve" smooth="yes"/>
      <point x="87" y="157" type="line" smooth="yes"/>
      <point x="87" y="70"/>
      <point x="177" y="40"/>
      <point x="291" y="40" type="curve" smooth="yes"/>
      <point x="407" y="40"/>
      <point x="527" y="89"/>
      <point x="527" y="174" type="curve" smooth="yes"/>
    </contour>
  </outline>
</glyph>
<glyph name="p" format="2">
  <advance width="626"/>
  <unicode hex="0070"/>
  <outline>
    <contour>
      <point x="594" y="176" type="line" smooth="yes"/>
      <point x="594" y="49"/>
      <point x="505" y="-12"/>
      <point x="339" y="-12" type="curve" smooth="yes"/>
      <point x="244" y="-12"/>
      <point x="132" y="20"/>
      <point x="96" y="61" type="curve"/>
      <point x="96" y="-212" type="line"/>
      <point x="39" y="-188" type="line"/>
      <point x="39" y="500" type="line"/>
      <point x="96" y="500" type="line"/>
      <point x="96" y="453" type="line"/>
      <point x="162" y="489"/>
      <point x="265" y="508"/>
      <point x="339" y="510" type="curve" smooth="yes"/>
      <point x="505" y="515"/>
      <point x="594" y="462"/>
      <point x="594" y="346" type="curve" smooth="yes"/>
    </contour>
    <contour>
      <point x="538" y="343" type="line" smooth="yes"/>
      <point x="538" y="453"/>
      <point x="417" y="466"/>
      <point x="321" y="460" type="curve" smooth="yes"/>
      <point x="255" y="456"/>
      <point x="139" y="434"/>
      <point x="96" y="393" type="curve"/>
      <point x="96" y="174" type="line" smooth="yes"/>
      <point x="96" y="89"/>
      <point x="219" y="40"/>
      <point x="334" y="40" type="curve" smooth="yes"/>
      <point x="447" y="40"/>
      <point x="538" y="77"/>
      <point x="538" y="167" type="curve" smooth="yes"/>
    </contour>
  </outline>
</glyph>
<glyph name="s" format="2">
  <advance width="600"/>
  <unicode hex="0073"/>
  <anchor x="298" y="587" name="top"/>
  <outline>
    <contour>
      <point x="489" y="437" type="line"/>
      <point x="449" y="453"/>
      <point x="375" y="465"/>
      <point x="326" y="465" type="curve" smooth="yes"/>
      <point x="245" y="465"/>
      <point x="121" y="456"/>
      <point x="121" y="392" type="curve" smooth="yes"/>
      <point x="121" y="283"/>
      <point x="569" y="299"/>
      <point x="569" y="128" type="curve" smooth="yes"/>
      <point x="569" y="28"/>
      <point x="441" y="-18"/>
      <point x="309" y="-18" type="curve" smooth="yes"/>
      <point x="203" y="-18"/>
      <point x="96" y="15"/>
      <point x="27" y="68" type="curve"/>
      <point x="57" y="103" type="line"/>
      <point x="124" y="58"/>
      <point x="216" y="34"/>
      <point x="309" y="34" type="curve" smooth="yes"/>
      <point x="396" y="34"/>
      <point x="510" y="61"/>
      <point x="510" y="123" type="curve" smooth="yes"/>
      <point x="510" y="251"/>
      <point x="65" y="233"/>
      <point x="65" y="388" type="curve" smooth="yes"/>
      <point x="65" y="482"/>
      <point x="185" y="512"/>
      <point x="309" y="512" type="curve" smooth="yes"/>
      <point x="369" y="512"/>
      <point x="434" y="506"/>
      <point x="507" y="477" type="curve"/>
    </contour>
  </outline>
  <guideline angle="90" x="-349.835" y="0"/>
  <guideline angle="0" x="0" y="345"/>
</glyph>
<glyph name="t" format="1">
  <advance width="328" height="962"/>
  <unicode hex="0074"/>
  <outline>
    <contour>
      <point x="96" y="123" type="line" smooth="yes"/>
      <point x="96" y="50"/>
      <point x="156" y="33"/>
      <point x="222" y="30" type="curve"/>
      <point x="207" y="-13" type="line"/>
      <point x="97" y="-11"/>
      <point x="39" y="34"/>
      <point x="39" y="132" type="curve" smooth="yes"/>
      <point x="39" y="700" type="line"/>
      <point x="96" y="700" type="line"/>
      <point x="96" y="500" type="line"/>
      <point x="303" y="500" type="line"/>
      <point x="277" y="448" type="line"/>
      <point x="96" y="448" type="line"/>
    </contour>
  </outline>
</glyph>
<glyph name="u" format="2">
  <advance width="630"/>
  <unicode hex="0075"/>
  <outline>
    <contour>
      <point x="534" y="64" type="line"/>
      <point x="481" y="7"/>
      <point x="371" y="-10"/>
      <point x="296" y="-10" type="curve" smooth="yes"/>
      <point x="130" y="-10"/>
      <point x="34" y="43"/>
      <point x="34" y="157" type="curve" smooth="yes"/>
      <point x="34" y="501" type="line"/>
      <point x="90" y="501" type="line"/>
      <point x="90" y="171" type="line" smooth="yes"/>
      <point x="90" y="69"/>
      <point x="185" y="44"/>
      <point x="299" y="44" type="curve" smooth="yes"/>
      <point x="419" y="44"/>
      <point x="534" y="102"/>
      <point x="534" y="173" type="curve" smooth="yes"/>
      <point x="534" y="501" type="line"/>
      <point x="591" y="501" type="line"/>
      <point x="591" y="0" type="line"/>
      <point x="534" y="0" type="line"/>
    </contour>
  </outline>
</glyph>
<glyph name="z" format="2">
  <advance width="596" height="962"/>
  <unicode hex="007A"/>
  <outline>
    <contour>
      <point x="546" y="501" type="line"/>
      <point x="546" y="452" type="line"/>
      <point x="110" y="51" type="line"/>
      <point x="568" y="50" type="line"/>
      <point x="568" y="0" type="line"/>
      <point x="26" y="0" type="line"/>
      <point x="26" y="50" type="line"/>
      <point x="459" y="451" type="line"/>
      <point x="39" y="452" type="line"/>
      <point x="39" y="501" type="line"/>
    </contour>
  </outline>
</glyph>
<glyph name="braceleft" format="2">
  <advance width="387" height="962"/>
  <unicode hex="007B"/>
  <outline>
    <contour>
      <point x="245" y="517" type="line" smooth="yes"/>
      <point x="245" y="489"/>
      <point x="239" y="461"/>
      <point x="230" y="433" type="curve" smooth="yes"/>
      <point x="219" y="406"/>
      <point x="191" y="379"/>
      <point x="144" y="353" type="curve"/>
      <point x="191" y="327"/>
      <point x="219" y="301"/>
      <point x="230" y="273" type="curve" smooth="yes"/>
      <point x="239" y="245"/>
      <point x="245" y="218"/>
      <point x="245" y="190" type="curve" smooth="yes"/>
      <point x="245" y="76" type="line" smooth="yes"/>
      <point x="245" y="-13"/>
      <point x="312" y="-52"/>
      <point x="359" y="-67" type="curve"/>
      <point x="324" y="-118" type="line"/>
      <point x="317" y="-115"/>
      <point x="159" y="-84"/>
      <point x="159" y="76" type="curve" smooth="yes"/>
      <point x="159" y="190" type="line" smooth="yes"/>
      <point x="159" y="218"/>
      <point x="153" y="244"/>
      <point x="143" y="270" type="curve" smooth="yes"/>
      <point x="131" y="296"/>
      <point x="102" y="321"/>
      <point x="54" y="345" type="curve" smooth="yes"/>
      <point x="38" y="353" type="line"/>
      <point x="54" y="361" type="line" smooth="yes"/>
      <point x="102" y="385"/>
      <point x="131" y="410"/>
      <point x="143" y="436" type="curve" smooth="yes"/>
      <point x="153" y="462"/>
      <point x="159" y="489"/>
      <point x="159" y="517" type="curve" smooth="yes"/>
      <point x="159" y="630" type="line" smooth="yes"/>
      <point x="159" y="792"/>
      <point x="320" y="820"/>
      <point x="324" y="823" type="curve"/>
      <point x="357" y="774" type="line"/>
      <point x="314" y="758"/>
      <point x="245" y="720"/>
      <point x="245" y="630" type="curve" smooth="yes"/>
    </contour>
  </outline>
</glyph>
<glyph name="bar" format="2">
  <advance width="212" height="962"/>
  <unicode hex="007C"/>
  <outline>
    <contour>
      <point x="63" y="-114" type="line"/>
      <point x="63" y="818" type="line"/>
      <point x="147" y="818" type="line"/>
      <point x="147" y="-114" type="line"/>
    </contour>
  </outline>
</glyph>
<glyph name="braceright" format="2">
  <advance width="395" height="962"/>
  <unicode hex="007D"/>
  <outline>
    <contour>
      <point x="49" y="823" type="line"/>
      <point x="55" y="821"/>
      <point x="230" y="791"/>
      <point x="230" y="630" type="curve" smooth="yes"/>
      <point x="230" y="517" type="line" smooth="yes"/>
      <point x="230" y="460"/>
      <point x="237" y="410"/>
      <point x="335" y="361" type="curve" smooth="yes"/>
      <point x="351" y="353" type="line"/>
      <point x="335" y="345" type="line" smooth="yes"/>
      <point x="237" y="297"/>
      <point x="230" y="245"/>
      <point x="230" y="190" type="curve" smooth="yes"/>
      <point x="230" y="76" type="line" smooth="yes"/>
      <point x="230" y="-84"/>
      <point x="61" y="-115"/>
      <point x="53" y="-118" type="curve"/>
      <point x="30" y="-67" type="line"/>
      <point x="74" y="-51"/>
      <point x="172" y="-23"/>
      <point x="172" y="76" type="curve" smooth="yes"/>
      <point x="172" y="180" type="line" smooth="yes"/>
      <point x="172" y="236"/>
      <point x="157" y="301"/>
      <point x="247" y="353" type="curve"/>
      <point x="157" y="405"/>
      <point x="172" y="471"/>
      <point x="172" y="527" type="curve" smooth="yes"/>
      <point x="172" y="630" type="line" smooth="yes"/>
      <point x="172" y="729"/>
      <point x="75" y="758"/>
      <point x="32" y="774" type="curve"/>
    </contour>
  </outline>
</glyph>
<glyph name="dieresis" format="2">
  <advance width="267" height="962"/>
  <unicode hex="00A8"/>
  <outline>
    <contour>
      <point x="54" y="742" type="curve" smooth="yes"/>
      <point x="73" y="742"/>
      <point x="88" y="727"/>
      <point x="88" y="708" type="curve" smooth="yes"/>
      <point x="88" y="690"/>
      <point x="73" y="675"/>
      <point x="54" y="675" type="curve" smooth="yes"/>
      <point x="37" y="675"/>
      <point x="21" y="690"/>
      <point x="21" y="708" type="curve" smooth="yes"/>
      <point x="21" y="727"/>
      <point x="37" y="742"/>
    </contour>
    <contour>
      <point x="213" y="742" type="curve" smooth="yes"/>
      <point x="231" y="742"/>
      <point x="246" y="727"/>
      <point x="246" y="708" type="curve" smooth="yes"/>
      <point x="246" y="690"/>
      <point x="231" y="675"/>
      <point x="213" y="675" type="curve" smooth="yes"/>
      <point x="194" y="675"/>
      <point x="180" y="690"/>
      <point x="180" y="708" type="curve" smooth="yes"/>
      <point x="180" y="727"/>
      <point x="194" y="742"/>
    </contour>
  </outline>
</glyph>
<glyph name="copyright" format="2">
  <advance width="1009"/>
  <unicode hex="00A9"/>
  <outline>
    <contour>
      <point x="979" y="178" type="line" smooth="yes"/>
      <point x="979" y="6"/>
      <point x="781" y="-69"/>
      <point x="504" y="-69" type="curve" smooth="yes"/>
      <point x="229" y="-69"/>
      <point x="30" y="6"/>
      <point x="30" y="178" type="curve" smooth="yes"/>
      <point x="30" y="333" type="line" smooth="yes"/>
      <point x="30" y="503"/>
      <point x="221" y="584"/>
      <point x="504" y="584" type="curve" smooth="yes"/>
      <point x="781" y="584"/>
      <point x="979" y="497"/>
      <point x="979" y="327" type="curve" smooth="yes"/>
    </contour>
    <contour>
      <point x="922" y="304" type="line" smooth="yes"/>
      <point x="922" y="469"/>
      <point x="768" y="530"/>
      <point x="504" y="530" type="curve" smooth="yes"/>
      <point x="241" y="530"/>
      <point x="89" y="478"/>
      <point x="89" y="315" type="curve" smooth="yes"/>
      <point x="89" y="193" type="line" smooth="yes"/>
      <point x="89" y="40"/>
      <point x="241" y="-15"/>
      <point x="504" y="-15" type="curve" smooth="yes"/>
      <point x="768" y="-15"/>
      <point x="922" y="38"/>
      <point x="922" y="199" type="curve" smooth="yes"/>
    </contour>
    <contour>
      <point x="724" y="384" type="line"/>
      <point x="670" y="398"/>
      <point x="591" y="405"/>
      <point x="540" y="405" type="curve" smooth="yes"/>
      <point x="463.281" y="405"/>
      <point x="398.82" y="399.008"/>
      <point x="354.717" y="376.22" type="curve" smooth="yes"/>
      <point x="314.316" y="355.344"/>
      <point x="291" y="320.373"/>
      <point x="291" y="263" type="curve" smooth="yes"/>
      <point x="291" y="199.71"/>
      <point x="317.507" y="159.228"/>
      <point x="366.927" y="135.737" type="curve" smooth="yes"/>
      <point x="406.524" y="116.915"/>
      <point x="460.831" y="109"/>
      <point x="528" y="109" type="curve" smooth="yes"/>
      <point x="588" y="109"/>
      <point x="676" y="116"/>
      <point x="761" y="135" type="curve"/>
      <point x="775" y="91" type="line"/>
      <point x="691" y="69"/>
      <point x="609" y="58"/>
      <point x="531" y="58" type="curve" smooth="yes"/>
      <point x="448.24" y="58"/>
      <point x="381.012" y="68.7374"/>
      <point x="331.581" y="92.899" type="curve" smooth="yes"/>
      <point x="268.126" y="123.916"/>
      <point x="234" y="177.055"/>
      <point x="234" y="258" type="curve" smooth="yes"/>
      <point x="234" y="326.373"/>
      <point x="256.996" y="374.23"/>
      <point x="301.167" y="405.64" type="curve" smooth="yes"/>
      <point x="350.025" y="440.381"/>
      <point x="424.79" y="455"/>
      <point x="523" y="455" type="curve" smooth="yes"/>
      <point x="600" y="455"/>
      <point x="675" y="444"/>
      <point x="738" y="421" type="curve"/>
    </contour>
  </outline>
</glyph>
<glyph name="registered" format="1">
  <advance width="1044" height="962"/>
  <unicode hex="00AE"/>
  <outline>
    <contour>
      <point x="979" y="178" type="line" smooth="yes"/>
      <point x="979" y="6"/>
      <point x="781" y="-69"/>
      <point x="504" y="-69" type="curve" smooth="yes"/>
      <point x="229" y="-69"/>
      <point x="30" y="6"/>
      <point x="30" y="178" type="curve" smooth="yes"/>
      <point x="30" y="333" type="line" smooth="yes"/>
      <point x="30" y="503"/>
      <point x="221" y="584"/>
      <point x="504" y="584" type="curve" smooth="yes"/>
      <point x="781" y="584"/>
      <point x="979" y="497"/>
      <point x="979" y="327" type="curve" smooth="yes"/>
    </contour>
    <contour>
      <point x="922" y="304" type="line" smooth="yes"/>
      <point x="922" y="469"/>
      <point x="768" y="530"/>
      <point x="504" y="530" type="curve" smooth="yes"/>
      <point x="241" y="530"/>
      <point x="89" y="478"/>
      <point x="89" y="315" type="curve" smooth="yes"/>
      <point x="89" y="193" type="line" smooth="yes"/>
      <point x="89" y="40"/>
      <point x="241" y="-15"/>
      <point x="504" y="-15" type="curve" smooth="yes"/>
      <point x="768" y="-15"/>
      <point x="922" y="38"/>
      <point x="922" y="199" type="curve" smooth="yes"/>
    </contour>
    <contour>
      <point x="572" y="443" type="line" smooth="yes"/>
      <point x="651" y="443"/>
      <point x="770" y="431"/>
      <point x="774" y="312" type="curve" smooth="yes"/>
      <point x="776" y="256"/>
      <point x="744" y="204"/>
      <point x="656" y="186" type="curve"/>
      <point x="752" y="59" type="line"/>
      <point x="676" y="59" type="line"/>
      <point x="591" y="177" type="line"/>
      <point x="324" y="177" type="line"/>
      <point x="324" y="59" type="line"/>
      <point x="266" y="59" type="line"/>
      <point x="266" y="443" type="line"/>
    </contour>
    <contour>
      <point x="580" y="233" type="line" smooth="yes"/>
      <point x="657" y="233"/>
      <point x="713" y="257"/>
      <point x="713" y="311" type="curve" smooth="yes"/>
      <point x="713" y="366"/>
      <point x="661" y="389"/>
      <point x="580" y="389" type="curve" smooth="yes"/>
      <point x="324" y="389" type="line"/>
      <point x="324" y="233" type="line"/>
    </contour>
  </outline>
</glyph>
<glyph name="mu" format="2">
  <advance width="656"/>
  <unicode hex="00B5"/>
  <outline>
    <contour>
      <point x="587" y="95" type="line" smooth="yes"/>
      <point x="587" y="52"/>
      <point x="621" y="30"/>
      <point x="627" y="26" type="curve"/>
      <point x="587" y="-6" type="line"/>
      <point x="578" y="-3"/>
      <point x="548" y="17"/>
      <point x="534" y="51" type="curve"/>
      <point x="504" y="16"/>
      <point x="411" y="-10"/>
      <point x="334" y="-10" type="curve" smooth="yes"/>
      <point x="155" y="-10"/>
      <point x="98" y="54"/>
      <point x="98" y="51" type="curve" smooth="yes"/>
      <point x="98" y="-210" type="line"/>
      <point x="39" y="-187" type="line"/>
      <point x="39" y="501" type="line"/>
      <point x="98" y="501" type="line"/>
      <point x="98" y="152" type="line" smooth="yes"/>
      <point x="98" y="94"/>
      <point x="198" y="45"/>
      <point x="331" y="45" type="curve" smooth="yes"/>
      <point x="433" y="45"/>
      <point x="530" y="79"/>
      <point x="530" y="154" type="curve" smooth="yes"/>
      <point x="530" y="498" type="line"/>
      <point x="587" y="510" type="line"/>
    </contour>
  </outline>
</glyph>
<glyph name="eth" format="1">
  <advance width="608" height="962"/>
  <unicode hex="00F0"/>
  <outline>
    <contour>
      <point x="454" y="652" type="curve"/>
      <point x="535" y="707" type="line"/>
      <point x="561" y="675" type="line"/>
      <point x="492" y="629" type="line"/>
      <point x="546" y="587"/>
      <point x="579" y="531"/>
      <point x="579" y="461" type="curve" smooth="yes"/>
      <point x="579" y="178" type="line" smooth="yes"/>
      <point x="579" y="41"/>
      <point x="479" y="-9"/>
      <point x="300" y="-9" type="curve" smooth="yes"/>
      <point x="122" y="-9"/>
      <point x="24" y="46"/>
      <point x="24" y="178" type="curve" smooth="yes"/>
      <point x="24" y="250" type="line" smooth="yes"/>
      <point x="24" y="381"/>
      <point x="112" y="434"/>
      <point x="279" y="434" type="curve" smooth="yes"/>
      <point x="382" y="434"/>
      <point x="491" y="400"/>
      <point x="526" y="357" type="curve"/>
      <point x="526" y="464" type="line" smooth="yes"/>
      <point x="526" y="525"/>
      <point x="492" y="568"/>
      <point x="448" y="599" type="curve"/>
      <point x="297" y="498" type="line"/>
      <point x="271" y="530" type="line"/>
      <point x="409" y="622" type="line"/>
      <point x="347" y="654"/>
      <point x="280" y="666"/>
      <point x="255" y="670" type="curve"/>
      <point x="267" y="701" type="line"/>
      <point x="342" y="695"/>
      <point x="404" y="679"/>
    </contour>
    <contour>
      <point x="296" y="43" type="curve" smooth="yes"/>
      <point x="428" y="43"/>
      <point x="526" y="70"/>
      <point x="526" y="178" type="curve" smooth="yes"/>
      <point x="526" y="249" type="line" smooth="yes"/>
      <point x="526" y="334"/>
      <point x="402" y="381"/>
      <point x="287" y="381" type="curve" smooth="yes"/>
      <point x="171" y="381"/>
      <point x="81" y="360"/>
      <point x="81" y="258" type="curve" smooth="yes"/>
      <point x="81" y="178" type="line" smooth="yes"/>
      <point x="81" y="70"/>
      <point x="170" y="43"/>
    </contour>
  </outline>
</glyph>
<glyph name="Hbar" format="1">
  <advance width="720" height="962"/>
  <unicode hex="0126"/>
  <outline>
    <component base="Eta"/>
    <contour>
      <point x="710" y="500" type="line"/>
      <point x="8" y="500" type="line"/>
      <point x="8" y="554" type="line"/>
      <point x="710" y="554" type="line"/>
    </contour>
  </outline>
</glyph>
<glyph name="hbar" format="2">
  <advance width="630"/>
  <unicode hex="0127"/>
  <outline>
    <component base="h" xOffset="1"/>
    <contour>
      <point x="367" y="564" type="line"/>
      <point x="1" y="564" type="line"/>
      <point x="1" y="617" type="line"/>
      <point x="367" y="617" type="line"/>
    </contour>
  </outline>
</glyph>
<glyph name="IJ" format="2">
  <advance width="818"/>
  <unicode hex="0132"/>
  <outline>
    <contour>
      <point x="775" y="700" type="line"/>
      <point x="775" y="186" type="line" smooth="yes"/>
      <point x="775" y="48"/>
      <point x="667" y="-11"/>
      <point x="467" y="-11" type="curve" smooth="yes"/>
      <point x="265" y="-11"/>
      <point x="125" y="46"/>
      <point x="125" y="186" type="curve" smooth="yes"/>
      <point x="125" y="223" type="line"/>
      <point x="182" y="223" type="line"/>
      <point x="182" y="187" type="line" smooth="yes"/>
      <point x="182" y="81"/>
      <point x="318" y="42"/>
      <point x="466" y="42" type="curve" smooth="yes"/>
      <point x="615" y="42"/>
      <point x="722" y="81"/>
      <point x="722" y="187" type="curve" smooth="yes"/>
      <point x="722" y="649" type="line"/>
      <point x="611" y="651" type="line"/>
      <point x="611" y="700" type="line"/>
    </contour>
    <contour>
      <point x="182" y="700" type="line"/>
      <point x="182" y="275" type="line"/>
      <point x="125" y="275" type="line"/>
      <point x="125" y="649" type="line"/>
      <point x="15" y="651" type="line"/>
      <point x="15" y="700" type="line"/>
    </contour>
  </outline>
</glyph>
<glyph name="ij" format="1">
  <advance width="653" height="962"/>
  <unicode hex="0133"/>
  <outline>
    <contour>
      <point x="77" y="710" type="curve" smooth="yes"/>
      <point x="95" y="710"/>
      <point x="111" y="695"/>
      <point x="111" y="676" type="curve" smooth="yes"/>
      <point x="111" y="659"/>
      <point x="95" y="643"/>
      <point x="77" y="643" type="curve" smooth="yes"/>
      <point x="59" y="643"/>
      <point x="43" y="659"/>
      <point x="43" y="676" type="curve" smooth="yes"/>
      <point x="43" y="695"/>
      <point x="59" y="710"/>
    </contour>
    <contour>
      <point x="610" y="676" type="curve" smooth="yes"/>
      <point x="610" y="659"/>
      <point x="595" y="643"/>
      <point x="576" y="643" type="curve" smooth="yes"/>
      <point x="559" y="643"/>
      <point x="543" y="659"/>
      <point x="543" y="676" type="curve" smooth="yes"/>
      <point x="543" y="695"/>
      <point x="559" y="709"/>
      <point x="576" y="709" type="curve" smooth="yes"/>
      <point x="595" y="709"/>
      <point x="610" y="695"/>
    </contour>
    <contour>
      <point x="550" y="501" type="line"/>
      <point x="603" y="501" type="line"/>
      <point x="603" y="-62" type="line" smooth="yes"/>
      <point x="603" y="-155"/>
      <point x="560" y="-186"/>
      <point x="446" y="-209" type="curve"/>
      <point x="425" y="-166" type="line"/>
      <point x="494" y="-150"/>
      <point x="550" y="-128"/>
      <point x="550" y="-64" type="curve" smooth="yes"/>
      <point x="550" y="65" type="line"/>
      <point x="500" y="15"/>
      <point x="388" y="-9"/>
      <point x="312" y="-9" type="curve" smooth="yes"/>
      <point x="137" y="-9"/>
      <point x="48" y="34"/>
      <point x="48" y="158" type="curve" smooth="yes"/>
      <point x="48" y="501" type="line"/>
      <point x="105" y="501" type="line"/>
      <point x="105" y="162" type="line" smooth="yes"/>
      <point x="105" y="49"/>
      <point x="226" y="44"/>
      <point x="329" y="44" type="curve" smooth="yes"/>
      <point x="435" y="44"/>
      <point x="550" y="104"/>
      <point x="550" y="174" type="curve" smooth="yes"/>
    </contour>
  </outline>
</glyph>
<glyph name="Lslash" format="2">
  <advance width="715"/>
  <unicode hex="0141"/>
  <outline>
    <component base="L" xOffset="112.25"/>
    <contour>
      <point x="32" y="309" type="line"/>
      <point x="17" y="359" type="line"/>
      <point x="455" y="490" type="line"/>
      <point x="472" y="440" type="line"/>
    </contour>
  </outline>
</glyph>
<glyph name="circumflexcomb" format="1">
  <advance width="267" height="962"/>
  <unicode hex="0302"/>
  <outline>
    <contour>
      <point x="264" y="624" type="line"/>
      <point x="224" y="587" type="line"/>
      <point x="135" y="675" type="line"/>
      <point x="42" y="585" type="line"/>
      <point x="3" y="623" type="line"/>
      <point x="135" y="751" type="line"/>
    </contour>
  </outline>
</glyph>
<glyph name="Theta" format="2">
  <advance width="701"/>
  <unicode hex="0398"/>
  <outline>
    <component base="O"/>
    <contour>
      <point x="85" y="380" type="line"/>
      <point x="613" y="380" type="line"/>
      <point x="613" y="323" type="line"/>
      <point x="85" y="323" type="line"/>
    </contour>
  </outline>
  <guideline angle="0" x="0" y="340"/>
</glyph>
<glyph name="Lambda" format="1">
  <advance width="795" height="962"/>
  <unicode hex="039B"/>
  <outline>
    <contour>
      <point x="398" y="638" type="line"/>
      <point x="85" y="0" type="line"/>
      <point x="20" y="0" type="line"/>
      <point x="365" y="700" type="line"/>
      <point x="433" y="700" type="line"/>
      <point x="775" y="0" type="line"/>
      <point x="711" y="0" type="line"/>
    </contour>
  </outline>
</glyph>
<glyph name="zeta" format="2">
  <advance width="593"/>
  <unicode hex="03B6"/>
  <anchor x="295" y="775" name="top"/>
  <outline>
    <contour>
      <point x="556" y="649" type="line"/>
      <point x="559" y="649"/>
      <point x="456" y="598"/>
      <point x="327" y="499" type="curve" smooth="yes"/>
      <point x="221" y="417"/>
      <point x="88" y="316"/>
      <point x="87" y="190" type="curve" smooth="yes"/>
      <point x="87" y="148"/>
      <point x="108" y="110"/>
      <point x="157" y="84" type="curve" smooth="yes"/>
      <point x="220" y="51"/>
      <point x="341" y="37"/>
      <point x="563" y="52" type="curve"/>
      <point x="563" y="-210" type="line"/>
      <point x="510" y="-196" type="line"/>
      <point x="510" y="-2" type="line"/>
      <point x="332" y="-15"/>
      <point x="180" y="2"/>
      <point x="102" y="51" type="curve" smooth="yes"/>
      <point x="54" y="82"/>
      <point x="29" y="135"/>
      <point x="28" y="191" type="curve" smooth="yes"/>
      <point x="26" y="327"/>
      <point x="150" y="434"/>
      <point x="266" y="523" type="curve" smooth="yes"/>
      <point x="319" y="563"/>
      <point x="393" y="615"/>
      <point x="456" y="653" type="curve"/>
      <point x="133" y="653" type="line"/>
      <point x="133" y="700" type="line"/>
      <point x="539" y="700" type="line"/>
    </contour>
  </outline>
</glyph>
<glyph name="lambda" format="1">
  <advance width="726" height="962"/>
  <unicode hex="03BB"/>
  <outline>
    <contour>
      <point x="597" y="124" type="line" smooth="yes"/>
      <point x="608" y="102"/>
      <point x="621" y="44"/>
      <point x="708" y="26" type="curve"/>
      <point x="677" y="-11" type="line"/>
      <point x="597" y="9"/>
      <point x="570" y="40"/>
      <point x="538" y="112" type="curve" smooth="yes"/>
      <point x="383" y="460" type="line"/>
      <point x="337" y="449"/>
      <point x="287" y="435"/>
      <point x="254" y="360" type="curve" smooth="yes"/>
      <point x="95" y="-1" type="line"/>
      <point x="35" y="-1" type="line"/>
      <point x="198" y="371" type="line" smooth="yes"/>
      <point x="229" y="441"/>
      <point x="271" y="484"/>
      <point x="362" y="506" type="curve"/>
      <point x="329" y="578" type="line" smooth="yes"/>
      <point x="309" y="621"/>
      <point x="242" y="654"/>
      <point x="162" y="654" type="curve"/>
      <point x="177" y="697" type="line"/>
      <point x="357" y="695"/>
      <point x="383" y="600"/>
      <point x="402" y="557" type="curve" smooth="yes"/>
    </contour>
  </outline>
</glyph>
<glyph name="nu" format="2">
  <advance width="642" height="962"/>
  <unicode hex="03BD"/>
  <outline>
    <contour>
      <point x="15" y="501" type="line"/>
      <point x="76" y="501" type="line"/>
      <point x="304" y="62" type="line"/>
      <point x="530" y="501" type="line"/>
      <point x="593" y="501" type="line"/>
      <point x="331" y="0" type="line"/>
      <point x="274" y="0" type="line"/>
    </contour>
  </outline>
</glyph>
<glyph name="rho" format="1">
  <advance width="621" height="962"/>
  <unicode hex="03C1"/>
  <outline>
    <contour>
      <point x="591" y="161" type="line" smooth="yes"/>
      <point x="591" y="40"/>
      <point x="504" y="-18"/>
      <point x="337" y="-18" type="curve" smooth="yes"/>
      <point x="243" y="-18"/>
      <point x="127" y="15"/>
      <point x="93" y="56" type="curve"/>
      <point x="93" y="-211" type="line"/>
      <point x="36" y="-188" type="line"/>
      <point x="36" y="321" type="line" smooth="yes"/>
      <point x="36" y="458"/>
      <point x="139" y="508"/>
      <point x="316" y="508" type="curve" smooth="yes"/>
      <point x="495" y="508"/>
      <point x="591" y="453"/>
      <point x="591" y="321" type="curve" smooth="yes"/>
    </contour>
    <contour>
      <point x="534" y="321" type="line" smooth="yes"/>
      <point x="534" y="429"/>
      <point x="447" y="456"/>
      <point x="321" y="456" type="curve" smooth="yes"/>
      <point x="189" y="456"/>
      <point x="93" y="429"/>
      <point x="93" y="321" type="curve" smooth="yes"/>
      <point x="93" y="168" type="line" smooth="yes"/>
      <point x="93" y="82"/>
      <point x="216" y="35"/>
      <point x="330" y="35" type="curve" smooth="yes"/>
      <point x="444" y="35"/>
      <point x="534" y="68"/>
      <point x="534" y="153" type="curve" smooth="yes"/>
    </contour>
  </outline>
</glyph>
<glyph name="sigma" format="2">
  <advance width="652" height="962"/>
  <unicode hex="03C3"/>
  <outline>
    <contour>
      <point x="652" y="517" type="line"/>
      <point x="616" y="480"/>
      <point x="573" y="461"/>
      <point x="528" y="453" type="curve"/>
      <point x="556" y="431"/>
      <point x="581" y="404"/>
      <point x="581" y="330" type="curve" smooth="yes"/>
      <point x="581" y="175" type="line" smooth="yes"/>
      <point x="581" y="58"/>
      <point x="493" y="-10"/>
      <point x="312" y="-10" type="curve" smooth="yes"/>
      <point x="124" y="-10"/>
      <point x="28" y="57"/>
      <point x="28" y="175" type="curve" smooth="yes"/>
      <point x="28" y="330" type="line" smooth="yes"/>
      <point x="28" y="492"/>
      <point x="180" y="512"/>
      <point x="309" y="512" type="curve" smooth="yes"/>
      <point x="381" y="512"/>
      <point x="468" y="501"/>
      <point x="510" y="504" type="curve" smooth="yes"/>
      <point x="543" y="507"/>
      <point x="591" y="521"/>
      <point x="623" y="543" type="curve"/>
    </contour>
    <contour>
      <point x="525" y="344" type="line" smooth="yes"/>
      <point x="525" y="408"/>
      <point x="477" y="441"/>
      <point x="448" y="450" type="curve"/>
      <point x="406" y="453"/>
      <point x="354" y="459"/>
      <point x="309" y="459" type="curve" smooth="yes"/>
      <point x="222" y="459"/>
      <point x="85" y="449"/>
      <point x="85" y="337" type="curve" smooth="yes"/>
      <point x="85" y="165" type="line" smooth="yes"/>
      <point x="85" y="75"/>
      <point x="193" y="40"/>
      <point x="313" y="40" type="curve" smooth="yes"/>
      <point x="439" y="40"/>
      <point x="525" y="83"/>
      <point x="525" y="165" type="curve" smooth="yes"/>
    </contour>
  </outline>
</glyph>
<glyph name="upsilon" format="2">
  <advance width="626"/>
  <unicode hex="03C5"/>
  <outline>
    <contour>
      <point x="590" y="185" type="line" smooth="yes"/>
      <point x="590" y="57"/>
      <point x="498" y="-10"/>
      <point x="317" y="-10" type="curve" smooth="yes"/>
      <point x="129" y="-10"/>
      <point x="33" y="67"/>
      <point x="33" y="185" type="curve" smooth="yes"/>
      <point x="33" y="501" type="line"/>
      <point x="90" y="501" type="line"/>
      <point x="90" y="175" type="line" smooth="yes"/>
      <point x="90" y="85"/>
      <point x="200" y="40"/>
      <point x="320" y="40" type="curve" smooth="yes"/>
      <point x="446" y="40"/>
      <point x="532" y="83"/>
      <point x="532" y="175" type="curve" smooth="yes"/>
      <point x="532" y="501" type="line"/>
      <point x="590" y="501" type="line"/>
    </contour>
  </outline>
</glyph>
<glyph name="phi" format="2">
  <advance width="850"/>
  <unicode hex="03C6"/>
  <outline>
    <contour>
      <point x="28" y="316" type="line" smooth="yes"/>
      <point x="28" y="428"/>
      <point x="88" y="478"/>
      <point x="205" y="504" type="curve"/>
      <point x="221" y="459" type="line"/>
      <point x="133" y="438"/>
      <point x="85" y="408"/>
      <point x="85" y="316" type="curve" smooth="yes"/>
      <point x="85" y="169" type="line" smooth="yes"/>
      <point x="85" y="73"/>
      <point x="189" y="43"/>
      <point x="309" y="43" type="curve" smooth="yes"/>
      <point x="392" y="43" type="line"/>
      <point x="392" y="391" type="line" smooth="yes"/>
      <point x="392" y="458"/>
      <point x="459" y="508"/>
      <point x="552" y="508" type="curve" smooth="yes"/>
      <point x="736" y="508"/>
      <point x="819" y="434"/>
      <point x="819" y="307" type="curve" smooth="yes"/>
      <point x="819" y="179" type="line" smooth="yes"/>
      <point x="819" y="55"/>
      <point x="737" y="-7"/>
      <point x="547" y="-7" type="curve" smooth="yes"/>
      <point x="449" y="-7" type="line"/>
      <point x="449" y="-212" type="line"/>
      <point x="392" y="-188" type="line"/>
      <point x="392" y="-7" type="line"/>
      <point x="309" y="-7" type="line" smooth="yes"/>
      <point x="118" y="-7"/>
      <point x="28" y="50"/>
      <point x="28" y="179" type="curve" smooth="yes"/>
    </contour>
    <contour>
      <point x="547" y="43" type="line" smooth="yes"/>
      <point x="668" y="43"/>
      <point x="762" y="78"/>
      <point x="762" y="169" type="curve" smooth="yes"/>
      <point x="762" y="317" type="line" smooth="yes"/>
      <point x="762" y="416"/>
      <point x="667" y="455"/>
      <point x="561" y="455" type="curve" smooth="yes"/>
      <point x="504" y="455"/>
      <point x="449" y="432"/>
      <point x="449" y="392" type="curve" smooth="yes"/>
      <point x="449" y="43" type="line"/>
    </contour>
  </outline>
</glyph>
<glyph name="chi" format="2">
  <advance width="699"/>
  <unicode hex="03C7"/>
  <outline>
    <contour>
      <point x="535" y="-98" type="line" smooth="yes"/>
      <point x="571" y="-147"/>
      <point x="602" y="-167"/>
      <point x="698" y="-174" type="curve"/>
      <point x="676" y="-212" type="line"/>
      <point x="595" y="-212"/>
      <point x="525" y="-183"/>
      <point x="478" y="-118" type="curve" smooth="yes"/>
      <point x="320" y="99" type="line"/>
      <point x="73" y="-207" type="line"/>
      <point x="21" y="-181" type="line"/>
      <point x="288" y="149" type="line"/>
      <point x="27" y="500" type="line"/>
      <point x="94" y="500" type="line"/>
      <point x="323" y="191" type="line"/>
      <point x="568" y="500" type="line"/>
      <point x="639" y="500" type="line"/>
      <point x="356" y="145" type="line"/>
    </contour>
  </outline>
</glyph>
<glyph name="psi" format="2">
  <advance width="850"/>
  <unicode hex="03C8"/>
  <outline>
    <contour>
      <point x="771" y="506" type="line"/>
      <point x="813" y="472"/>
      <point x="819" y="438"/>
      <point x="819" y="387" type="curve" smooth="yes"/>
      <point x="819" y="179" type="line" smooth="yes"/>
      <point x="819" y="58"/>
      <point x="735" y="-7"/>
      <point x="545" y="-7" type="curve" smooth="yes"/>
      <point x="455" y="-7" type="line"/>
      <point x="455" y="-210" type="line"/>
      <point x="398" y="-188" type="line"/>
      <point x="398" y="-7" type="line"/>
      <point x="298" y="-7" type="line" smooth="yes"/>
      <point x="109" y="-7"/>
      <point x="28" y="58"/>
      <point x="28" y="179" type="curve" smooth="yes"/>
      <point x="28" y="500" type="line"/>
      <point x="86" y="500" type="line"/>
      <point x="86" y="169" type="line" smooth="yes"/>
      <point x="86" y="81"/>
      <point x="180" y="43"/>
      <point x="298" y="43" type="curve" smooth="yes"/>
      <point x="398" y="43" type="line"/>
      <point x="398" y="500" type="line"/>
      <point x="455" y="500" type="line"/>
      <point x="455" y="43" type="line"/>
      <point x="545" y="43" type="line" smooth="yes"/>
      <point x="665" y="43"/>
      <point x="762" y="81"/>
      <point x="762" y="169" type="curve" smooth="yes"/>
      <point x="762" y="387" type="line" smooth="yes"/>
      <point x="762" y="430"/>
      <point x="760" y="458"/>
      <point x="720" y="489" type="curve"/>
    </contour>
  </outline>
</glyph>
<glyph name="uni0404" format="1">
  <advance width="605" height="962"/>
  <unicode hex="0404"/>
  <outline>
    <component base="C"/>
    <contour>
      <point x="88" y="357" type="line"/>
      <point x="88" y="412" type="line"/>
      <point x="388" y="412" type="line"/>
      <point x="371" y="357" type="line"/>
    </contour>
  </outline>
</glyph>
<glyph name="uni0411" format="2">
  <advance width="650"/>
  <unicode hex="0411"/>
  <outline>
    <component base="uni042C"/>
    <contour>
      <point x="69" y="647" type="line"/>
      <point x="69" y="700" type="line"/>
      <point x="566" y="700" type="line"/>
      <point x="566" y="647" type="line"/>
    </contour>
  </outline>
</glyph>
<glyph name="uni0414" format="1">
  <advance width="773" height="962"/>
  <unicode hex="0414"/>
  <outline>
    <contour>
      <point x="693" y="56" type="line"/>
      <point x="759" y="56" type="line"/>
      <point x="759" y="-106" type="line"/>
      <point x="707" y="-106" type="line"/>
      <point x="702" y="-1" type="line"/>
      <point x="65" y="-1" type="line"/>
      <point x="59" y="-106" type="line"/>
      <point x="12" y="-106" type="line"/>
      <point x="12" y="56" type="line"/>
      <point x="82" y="56" type="line"/>
      <point x="309" y="557" type="line" smooth="yes"/>
      <point x="334" y="612"/>
      <point x="373" y="700"/>
      <point x="540" y="700" type="curve" smooth="yes"/>
      <point x="693" y="700" type="line"/>
    </contour>
    <contour>
      <point x="636" y="56" type="line"/>
      <point x="636" y="647" type="line"/>
      <point x="523" y="647" type="line" smooth="yes"/>
      <point x="431" y="647"/>
      <point x="393" y="608"/>
      <point x="373" y="565" type="curve" smooth="yes"/>
      <point x="140" y="56" type="line"/>
    </contour>
  </outline>
</glyph>
<glyph name="uni041B" format="2">
  <advance width="765"/>
  <unicode hex="041B"/>
  <outline>
    <contour>
      <point x="555" y="700" type="curve" smooth="yes"/>
      <point x="731" y="700" type="line"/>
      <point x="731" y="0" type="line"/>
      <point x="674" y="0" type="line"/>
      <point x="674" y="647" type="line"/>
      <point x="544" y="647" type="line" smooth="yes"/>
      <point x="467" y="647"/>
      <point x="431" y="603"/>
      <point x="408" y="552" type="curve" smooth="yes"/>
      <point x="207" y="112" type="line" smooth="yes"/>
      <point x="174" y="40"/>
      <point x="155" y="4"/>
      <point x="65" y="-11" type="curve"/>
      <point x="30" y="20" type="line"/>
      <point x="117" y="38"/>
      <point x="141" y="102"/>
      <point x="152" y="124" type="curve" smooth="yes"/>
      <point x="347" y="557" type="line" smooth="yes"/>
      <point x="366" y="600"/>
      <point x="401" y="700"/>
    </contour>
  </outline>
</glyph>
<glyph name="uni0423" format="2">
  <advance width="715" height="962"/>
  <unicode hex="0423"/>
  <outline>
    <contour>
      <point x="643" y="700" type="line"/>
      <point x="709" y="700" type="line"/>
      <point x="298" y="111" type="line" smooth="yes"/>
      <point x="247" y="39"/>
      <point x="207" y="3"/>
      <point x="112" y="-12" type="curve"/>
      <point x="83" y="19" type="line"/>
      <point x="184" y="37"/>
      <point x="227" y="101"/>
      <point x="242" y="123" type="curve" smooth="yes"/>
      <point x="337" y="261" type="line"/>
      <point x="6" y="700" type="line"/>
      <point x="76" y="700" type="line"/>
      <point x="369" y="306" type="line"/>
    </contour>
  </outline>
</glyph>
<glyph name="uni0426" format="1">
  <advance width="773" height="962"/>
  <unicode hex="0426"/>
  <outline>
    <contour>
      <point x="688" y="57" type="line"/>
      <point x="745" y="57" type="line"/>
      <point x="745" y="-105" type="line"/>
      <point x="695" y="-105" type="line"/>
      <point x="692" y="0" type="line"/>
      <point x="41" y="0" type="line"/>
      <point x="41" y="700" type="line"/>
      <point x="95" y="700" type="line"/>
      <point x="95" y="57" type="line"/>
      <point x="632" y="57" type="line"/>
      <point x="632" y="700" type="line"/>
      <point x="688" y="700" type="line"/>
    </contour>
  </outline>
</glyph>
<glyph name="uni042D" format="1">
  <advance width="603" height="962"/>
  <unicode hex="042D"/>
  <outline>
    <contour>
      <point x="88" y="638" type="curve"/>
      <point x="72" y="677" type="line"/>
      <point x="135" y="699"/>
      <point x="216" y="710"/>
      <point x="294" y="710" type="curve" smooth="yes"/>
      <point x="469" y="710"/>
      <point x="578" y="660"/>
      <point x="578" y="510" type="curve" smooth="yes"/>
      <point x="578" y="184" type="line" smooth="yes"/>
      <point x="578" y="40"/>
      <point x="477" y="-10"/>
      <point x="278" y="-10" type="curve" smooth="yes"/>
      <point x="202" y="-10"/>
      <point x="119" y="1"/>
      <point x="35" y="23" type="curve"/>
      <point x="48" y="71" type="line"/>
      <point x="132" y="51"/>
      <point x="214" y="40"/>
      <point x="272" y="40" type="curve" smooth="yes"/>
      <point x="434" y="40"/>
      <point x="521" y="71"/>
      <point x="521" y="186" type="curve" smooth="yes"/>
      <point x="521" y="514" type="line" smooth="yes"/>
      <point x="521" y="629"/>
      <point x="424" y="660"/>
      <point x="267" y="660" type="curve" smooth="yes"/>
      <point x="215" y="660"/>
      <point x="143" y="653"/>
    </contour>
    <contour>
      <point x="532" y="412" type="line"/>
      <point x="532" y="357" type="line"/>
      <point x="244" y="357" type="line"/>
      <point x="224" y="412" type="line"/>
    </contour>
  </outline>
</glyph>
<glyph name="uni0434" format="1">
  <advance width="702" height="962"/>
  <unicode hex="0434"/>
  <outline>
    <contour>
      <point x="634" y="57" type="line"/>
      <point x="691" y="57" type="line"/>
      <point x="691" y="-105" type="line"/>
      <point x="640" y="-105" type="line"/>
      <point x="634" y="0" type="line"/>
      <point x="68" y="0" type="line"/>
      <point x="62" y="-105" type="line"/>
      <point x="9" y="-105" type="line"/>
      <point x="9" y="57" type="line"/>
      <point x="72" y="57" type="line"/>
      <point x="207" y="357" type="line" smooth="yes"/>
      <point x="232" y="412"/>
      <point x="256" y="500"/>
      <point x="418" y="500" type="curve" smooth="yes"/>
      <point x="634" y="500" type="line"/>
    </contour>
    <contour>
      <point x="134" y="57" type="line"/>
      <point x="577" y="57" type="line"/>
      <point x="577" y="447" type="line"/>
      <point x="415" y="447" type="line" smooth="yes"/>
      <point x="316" y="447"/>
      <point x="293" y="409"/>
      <point x="273" y="365" type="curve" smooth="yes"/>
    </contour>
  </outline>
</glyph>
<glyph name="uni043C" format="2">
  <advance width="846"/>
  <unicode hex="043C"/>
  <outline>
    <contour>
      <point x="746" y="500" type="line"/>
      <point x="807" y="500" type="line"/>
      <point x="807" y="0" type="line"/>
      <point x="752" y="0" type="line"/>
      <point x="752" y="419" type="line"/>
      <point x="455" y="0" type="line"/>
      <point x="393" y="0" type="line"/>
      <point x="92" y="420" type="line"/>
      <point x="92" y="0" type="line"/>
      <point x="36" y="0" type="line"/>
      <point x="36" y="500" type="line"/>
      <point x="100" y="500" type="line"/>
      <point x="424" y="48" type="line"/>
    </contour>
  </outline>
</glyph>
<glyph name="uni0446" format="1">
  <advance width="664" height="962"/>
  <unicode hex="0446"/>
  <outline>
    <contour>
      <point x="549" y="57" type="line"/>
      <point x="645" y="57" type="line"/>
      <point x="645" y="-105" type="line"/>
      <point x="596" y="-105" type="line"/>
      <point x="591" y="0" type="line"/>
      <point x="549" y="0" type="line"/>
    </contour>
    <contour>
      <point x="591" y="500" type="line"/>
      <point x="591" y="0" type="line"/>
      <point x="36" y="0" type="line"/>
      <point x="36" y="500" type="line"/>
      <point x="91" y="500" type="line"/>
      <point x="91" y="57" type="line"/>
      <point x="537" y="57" type="line"/>
      <point x="537" y="500" type="line"/>
    </contour>
  </outline>
</glyph>
<glyph name="uni0448" format="1">
  <advance width="878" height="962"/>
  <unicode hex="0448"/>
  <outline>
    <contour>
      <point x="779" y="500" type="line"/>
      <point x="833" y="500" type="line"/>
      <point x="833" y="0" type="line"/>
      <point x="44" y="0" type="line"/>
      <point x="44" y="500" type="line"/>
      <point x="97" y="500" type="line"/>
      <point x="97" y="57" type="line"/>
      <point x="411" y="57" type="line"/>
      <point x="411" y="500" type="line"/>
      <point x="464" y="500" type="line"/>
      <point x="464" y="57" type="line"/>
      <point x="779" y="57" type="line"/>
    </contour>
  </outline>
</glyph>
<glyph name="uni0449" format="1">
  <advance width="912" height="962"/>
  <unicode hex="0449"/>
  <outline>
    <component base="uni0448"/>
    <contour>
      <point x="808" y="57" type="line"/>
      <point x="890" y="57" type="line"/>
      <point x="890" y="-105" type="line"/>
      <point x="840" y="-105" type="line"/>
      <point x="834" y="0" type="line"/>
      <point x="808" y="0" type="line"/>
    </contour>
  </outline>
</glyph>
<glyph name="uni044C" format="2">
  <advance width="649"/>
  <unicode hex="044C"/>
  <outline>
    <contour>
      <point x="408" y="303" type="line" smooth="yes"/>
      <point x="532" y="303"/>
      <point x="616" y="259"/>
      <point x="616" y="152" type="curve" smooth="yes"/>
      <point x="616" y="59"/>
      <point x="551" y="-8"/>
      <point x="342" y="-8" type="curve" smooth="yes"/>
      <point x="214" y="-8"/>
      <point x="61" y="2"/>
      <point x="40" y="3" type="curve"/>
      <point x="40" y="500" type="line"/>
      <point x="94" y="500" type="line"/>
      <point x="94" y="303" type="line"/>
    </contour>
    <contour>
      <point x="327" y="45" type="curve" smooth="yes"/>
      <point x="461" y="45"/>
      <point x="556" y="72"/>
      <point x="556" y="149" type="curve" smooth="yes"/>
      <point x="556" y="237"/>
      <point x="462" y="248"/>
      <point x="406" y="248" type="curve" smooth="yes"/>
      <point x="94" y="248" type="line"/>
      <point x="94" y="49" type="line"/>
      <point x="94" y="49"/>
      <point x="229" y="45"/>
    </contour>
  </outline>
</glyph>
<glyph name="uni0454" format="2">
  <advance width="545"/>
  <unicode hex="0454"/>
  <outline>
    <contour>
      <point x="411" y="247" type="line"/>
      <point x="83" y="247" type="line"/>
      <point x="83" y="186" type="line" smooth="yes"/>
      <point x="83" y="64"/>
      <point x="172" y="41"/>
      <point x="316" y="41" type="curve" smooth="yes"/>
      <point x="414" y="41"/>
      <point x="502" y="56"/>
      <point x="499" y="55" type="curve"/>
      <point x="511" y="5" type="line"/>
      <point x="449" y="-6"/>
      <point x="379" y="-12"/>
      <point x="313" y="-11" type="curve" smooth="yes"/>
      <point x="140" y="-9"/>
      <point x="27" y="27"/>
      <point x="27" y="174" type="curve" smooth="yes"/>
      <point x="27" y="319" type="line" smooth="yes"/>
      <point x="27" y="452"/>
      <point x="121" y="510"/>
      <point x="307" y="510" type="curve" smooth="yes"/>
      <point x="374" y="510"/>
      <point x="445" y="497"/>
      <point x="508" y="478" type="curve"/>
      <point x="492" y="433" type="line"/>
      <point x="439" y="449"/>
      <point x="368" y="459"/>
      <point x="310" y="459" type="curve" smooth="yes"/>
      <point x="169" y="459"/>
      <point x="83" y="416"/>
      <point x="83" y="311" type="curve" smooth="yes"/>
      <point x="83" y="301" type="line"/>
      <point x="428" y="301" type="line"/>
    </contour>
  </outline>
</glyph>
<glyph name="uni045A" format="2">
  <advance width="1110"/>
  <unicode hex="045A"/>
  <outline>
    <contour>
      <point x="850" y="303" type="line" smooth="yes"/>
      <point x="980" y="303"/>
      <point x="1079" y="258"/>
      <point x="1079" y="151" type="curve" smooth="yes"/>
      <point x="1079" y="52"/>
      <point x="992" y="-9"/>
      <point x="793" y="-9" type="curve" smooth="yes"/>
      <point x="670" y="-9"/>
      <point x="510" y="2"/>
      <point x="510" y="2" type="curve"/>
      <point x="510" y="248" type="line"/>
      <point x="86" y="248" type="line"/>
      <point x="86" y="0" type="line"/>
      <point x="31" y="0" type="line"/>
      <point x="31" y="500" type="line"/>
      <point x="86" y="500" type="line"/>
      <point x="86" y="303" type="line"/>
      <point x="510" y="303" type="line"/>
      <point x="510" y="500" type="line"/>
      <point x="564" y="500" type="line"/>
      <point x="564" y="303" type="line"/>
    </contour>
    <contour>
      <point x="789" y="44" type="curve" smooth="yes"/>
      <point x="921" y="44"/>
      <point x="1018" y="73"/>
      <point x="1018" y="148" type="curve" smooth="yes"/>
      <point x="1018" y="236"/>
      <point x="917" y="248"/>
      <point x="854" y="248" type="curve" smooth="yes"/>
      <point x="564" y="248" type="line"/>
      <point x="564" y="48" type="line"/>
      <point x="564" y="48"/>
      <point x="692" y="44"/>
    </contour>
  </outline>
</glyph>
<glyph name="uni045F" format="1">
  <advance width="628" height="962"/>
  <unicode hex="045F"/>
  <outline>
    <contour>
      <point x="588" y="500" type="line"/>
      <point x="588" y="0" type="line"/>
      <point x="339" y="0" type="line"/>
      <point x="336" y="-107" type="line"/>
      <point x="288" y="-107" type="line"/>
      <point x="285" y="0" type="line"/>
      <point x="35" y="0" type="line"/>
      <point x="35" y="500" type="line"/>
      <point x="90" y="500" type="line"/>
      <point x="90" y="57" type="line"/>
      <point x="534" y="57" type="line"/>
      <point x="534" y="500" type="line"/>
    </contour>
  </outline>
</glyph>
<glyph name="uni0492" format="2">
  <advance width="559" height="962"/>
  <unicode hex="0492"/>
  <outline>
    <component base="Gamma" xOffset="10.5"/>
    <contour>
      <point x="-1" y="414" type="line"/>
      <point x="464" y="414" type="line"/>
      <point x="464" y="356" type="line"/>
      <point x="-1" y="356" type="line"/>
    </contour>
  </outline>
</glyph>
<glyph name="uni0494" format="1">
  <advance width="624" height="962"/>
  <unicode hex="0494"/>
  <outline>
    <component base="Gamma"/>
    <contour>
      <point x="328" y="510" type="curve" smooth="yes"/>
      <point x="495" y="510"/>
      <point x="589" y="464"/>
      <point x="589" y="348" type="curve" smooth="yes"/>
      <point x="589" y="132" type="line" smooth="yes"/>
      <point x="589" y="54"/>
      <point x="541" y="9"/>
      <point x="432" y="-13" type="curve"/>
      <point x="415" y="30" type="line"/>
      <point x="482" y="45"/>
      <point x="535" y="79"/>
      <point x="535" y="132" type="curve" smooth="yes"/>
      <point x="535" y="345" type="line" smooth="yes"/>
      <point x="535" y="448"/>
      <point x="408" y="460"/>
      <point x="312" y="460" type="curve" smooth="yes"/>
      <point x="243" y="460"/>
      <point x="157" y="448"/>
      <point x="95" y="425" type="curve"/>
      <point x="95" y="467" type="line"/>
      <point x="152" y="493"/>
      <point x="253" y="510"/>
    </contour>
  </outline>
</glyph>
<glyph name="uni0495" format="2">
  <advance width="585"/>
  <unicode hex="0495"/>
  <outline>
    <component base="uni0433"/>
    <contour>
      <point x="304" y="304" type="curve" smooth="yes"/>
      <point x="452" y="304"/>
      <point x="551" y="260"/>
      <point x="551" y="144" type="curve" smooth="yes"/>
      <point x="551" y="-62" type="line" smooth="yes"/>
      <point x="551" y="-145"/>
      <point x="505" y="-184"/>
      <point x="391" y="-209" type="curve"/>
      <point x="367" y="-166" type="line"/>
      <point x="457" y="-149"/>
      <point x="499" y="-119"/>
      <point x="499" y="-61" type="curve" smooth="yes"/>
      <point x="499" y="141" type="line" smooth="yes"/>
      <point x="499" y="242"/>
      <point x="374" y="254"/>
      <point x="289" y="254" type="curve" smooth="yes"/>
      <point x="227" y="254"/>
      <point x="143" y="242"/>
      <point x="84" y="219" type="curve"/>
      <point x="84" y="261" type="line"/>
      <point x="138" y="287"/>
      <point x="236" y="304"/>
    </contour>
  </outline>
</glyph>
<glyph name="uni0496" format="1">
  <advance width="999" height="962"/>
  <unicode hex="0496"/>
  <outline>
    <component base="uni0416"/>
    <contour>
      <point x="906" y="57" type="line"/>
      <point x="980" y="57" type="line"/>
      <point x="980" y="-105" type="line"/>
      <point x="931" y="-105" type="line"/>
      <point x="924" y="0" type="line"/>
      <point x="906" y="0" type="line"/>
    </contour>
  </outline>
</glyph>
<glyph name="uni0497" format="1">
  <advance width="797" height="962"/>
  <unicode hex="0497"/>
  <outline>
    <component base="uni0436"/>
    <contour>
      <point x="705" y="57" type="line"/>
      <point x="779" y="57" type="line"/>
      <point x="779" y="-105" type="line"/>
      <point x="730" y="-105" type="line"/>
      <point x="723" y="0" type="line"/>
      <point x="705" y="0" type="line"/>
    </contour>
  </outline>
</glyph>
<glyph name="uni049A" format="1">
  <advance width="659" height="962"/>
  <unicode hex="049A"/>
  <outline>
    <component base="K"/>
    <contour>
      <point x="569" y="57" type="line"/>
      <point x="643" y="57" type="line"/>
      <point x="643" y="-105" type="line"/>
      <point x="594" y="-105" type="line"/>
      <point x="587" y="0" type="line"/>
      <point x="569" y="0" type="line"/>
    </contour>
  </outline>
</glyph>
<glyph name="uni049C" format="1">
  <advance width="762" height="962"/>
  <unicode hex="049C"/>
  <outline>
    <contour>
      <point x="740" y="0" type="line"/>
      <point x="660" y="0" type="line"/>
      <point x="311" y="358" type="line"/>
      <point x="225" y="358" type="line"/>
      <point x="225" y="285" type="line"/>
      <point x="172" y="285" type="line"/>
      <point x="172" y="358" type="line"/>
      <point x="95" y="358" type="line"/>
      <point x="95" y="0" type="line"/>
      <point x="40" y="0" type="line"/>
      <point x="40" y="700" type="line"/>
      <point x="95" y="700" type="line"/>
      <point x="95" y="413" type="line"/>
      <point x="172" y="413" type="line"/>
      <point x="172" y="484" type="line"/>
      <point x="225" y="484" type="line"/>
      <point x="225" y="413" type="line"/>
      <point x="302" y="413" type="line"/>
      <point x="586" y="700" type="line"/>
      <point x="662" y="700" type="line"/>
      <point x="355" y="393" type="line"/>
    </contour>
  </outline>
</glyph>
<glyph name="uni04A1" format="2">
  <advance width="710"/>
  <unicode hex="04A1"/>
  <outline>
    <contour>
      <point x="546" y="118" type="line" smooth="yes"/>
      <point x="597" y="71"/>
      <point x="643" y="48"/>
      <point x="682" y="48" type="curve" smooth="yes"/>
      <point x="688" y="48" type="line"/>
      <point x="688" y="0" type="line"/>
      <point x="685" y="0" type="line" smooth="yes"/>
      <point x="579" y="0"/>
      <point x="520" y="70"/>
      <point x="462" y="122" type="curve" smooth="yes"/>
      <point x="304" y="264" type="line"/>
      <point x="183" y="180" type="line"/>
      <point x="183" y="0" type="line"/>
      <point x="130" y="0" type="line"/>
      <point x="130" y="449" type="line"/>
      <point x="0" y="451" type="line"/>
      <point x="0" y="500" type="line"/>
      <point x="183" y="500" type="line"/>
      <point x="183" y="249" type="line"/>
      <point x="540" y="500" type="line"/>
      <point x="636" y="500" type="line"/>
      <point x="347" y="300" type="line"/>
    </contour>
  </outline>
</glyph>
<glyph name="uni04A2" format="2">
  <advance width="759"/>
  <unicode hex="04A2"/>
  <outline>
    <contour>
      <point x="649" y="57" type="line"/>
      <point x="733" y="57" type="line"/>
      <point x="733" y="-105" type="line"/>
      <point x="684" y="-105" type="line"/>
      <point x="677" y="0" type="line"/>
      <point x="649" y="0" type="line"/>
    </contour>
    <contour>
      <point x="624" y="412" type="line"/>
      <point x="624" y="700" type="line"/>
      <point x="678" y="700" type="line"/>
      <point x="678" y="0" type="line"/>
      <point x="624" y="0" type="line"/>
      <point x="624" y="357" type="line"/>
      <point x="98" y="357" type="line"/>
      <point x="98" y="0" type="line"/>
      <point x="41" y="0" type="line"/>
      <point x="41" y="700" type="line"/>
      <point x="98" y="700" type="line"/>
      <point x="98" y="412" type="line"/>
    </contour>
  </outline>
</glyph>
<glyph name="uni04A5" format="2">
  <advance width="775" height="962"/>
  <unicode hex="04A5"/>
  <outline>
    <component base="uni043D"/>
    <contour>
      <point x="561" y="500" type="line"/>
      <point x="696" y="500" type="line"/>
      <point x="696" y="451" type="line"/>
      <point x="589" y="448" type="line"/>
      <point x="561" y="448" type="line"/>
    </contour>
  </outline>
</glyph>
<glyph name="uni04B2" format="2">
  <advance width="810"/>
  <unicode hex="04B2"/>
  <outline>
    <contour>
      <point x="716" y="57" type="line"/>
      <point x="788" y="57" type="line"/>
      <point x="788" y="-105" type="line"/>
      <point x="739" y="-105" type="line"/>
      <point x="734" y="0" type="line"/>
      <point x="716" y="0" type="line"/>
    </contour>
    <contour>
      <point x="405" y="406" type="line"/>
      <point x="680" y="700" type="line"/>
      <point x="757" y="700" type="line"/>
      <point x="443" y="364" type="line"/>
      <point x="783" y="0" type="line"/>
      <point x="703" y="0" type="line"/>
      <point x="405" y="322" type="line"/>
      <point x="103" y="0" type="line"/>
      <point x="25" y="0" type="line"/>
      <point x="365" y="364" type="line"/>
      <point x="52" y="700" type="line"/>
      <point x="128" y="700" type="line"/>
    </contour>
  </outline>
</glyph>
<glyph name="uni04B6" format="2">
  <advance width="772"/>
  <unicode hex="04B6"/>
  <outline>
    <component base="uni0427"/>
    <contour>
      <point x="662" y="57" type="line"/>
      <point x="749" y="57" type="line"/>
      <point x="749" y="-105" type="line"/>
      <point x="700" y="-105" type="line"/>
      <point x="693" y="0" type="line"/>
      <point x="662" y="0" type="line"/>
    </contour>
  </outline>
  <guideline angle="90" x="134.436" y="0"/>
  <guideline angle="0" x="0" y="567"/>
</glyph>
<glyph name="uni04BA" format="2">
  <advance width="744" height="962"/>
  <unicode hex="04BA"/>
  <outline>
    <contour>
      <point x="98" y="700" type="line"/>
      <point x="98" y="379" type="line"/>
      <point x="166" y="433"/>
      <point x="276" y="454"/>
      <point x="381" y="454" type="curve" smooth="yes"/>
      <point x="582" y="454"/>
      <point x="711" y="382"/>
      <point x="711" y="246" type="curve" smooth="yes"/>
      <point x="711" y="-1" type="line"/>
      <point x="657" y="-1" type="line"/>
      <point x="657" y="246" type="line" smooth="yes"/>
      <point x="657" y="353"/>
      <point x="535" y="400"/>
      <point x="381" y="400" type="curve" smooth="yes"/>
      <point x="262" y="400"/>
      <point x="98" y="368"/>
      <point x="98" y="276" type="curve" smooth="yes"/>
      <point x="98" y="-1" type="line"/>
      <point x="43" y="-1" type="line"/>
      <point x="43" y="700" type="line"/>
    </contour>
  </outline>
</glyph>
<glyph name="uni04D8" format="1">
  <advance width="701" height="962"/>
  <unicode hex="04D8"/>
  <outline>
    <contour>
      <point x="374" y="709" type="curve" smooth="yes"/>
      <point x="539" y="709"/>
      <point x="667" y="666"/>
      <point x="667" y="519" type="curve" smooth="yes"/>
      <point x="667" y="175" type="line" smooth="yes"/>
      <point x="667" y="35"/>
      <point x="526" y="-12"/>
      <point x="349" y="-12" type="curve" smooth="yes"/>
      <point x="163" y="-12"/>
      <point x="34" y="43"/>
      <point x="34" y="175" type="curve" smooth="yes"/>
      <point x="34" y="335" type="line"/>
      <point x="614" y="351" type="line"/>
      <point x="614" y="523" type="line" smooth="yes"/>
      <point x="614" y="636"/>
      <point x="494" y="659"/>
      <point x="347" y="659" type="curve" smooth="yes"/>
      <point x="295" y="659"/>
      <point x="232" y="653"/>
      <point x="177" y="638" type="curve"/>
      <point x="161" y="676" type="line"/>
      <point x="224" y="698"/>
      <point x="296" y="709"/>
    </contour>
    <contour>
      <point x="352" y="41" type="curve" smooth="yes"/>
      <point x="484" y="41"/>
      <point x="614" y="70"/>
      <point x="614" y="176" type="curve" smooth="yes"/>
      <point x="614" y="297" type="line"/>
      <point x="88" y="283" type="line"/>
      <point x="88" y="176" type="line" smooth="yes"/>
      <point x="88" y="67"/>
      <point x="214" y="41"/>
    </contour>
  </outline>
</glyph>
<glyph name="quotedblright" format="1">
  <advance width="307" height="962"/>
  <unicode hex="201D"/>
  <outline>
    <contour>
      <point x="29" y="559" type="line"/>
      <point x="51" y="585"/>
      <point x="59" y="611"/>
      <point x="60" y="633" type="curve"/>
      <point x="46" y="637"/>
      <point x="33" y="650"/>
      <point x="33" y="666" type="curve" smooth="yes"/>
      <point x="33" y="685"/>
      <point x="48" y="700"/>
      <point x="66" y="700" type="curve" smooth="yes"/>
      <point x="85" y="700"/>
      <point x="99" y="686"/>
      <point x="101" y="666" type="curve"/>
      <point x="101" y="606"/>
      <point x="67" y="563"/>
      <point x="47" y="546" type="curve"/>
    </contour>
    <contour>
      <point x="210" y="559" type="line"/>
      <point x="231" y="585"/>
      <point x="238" y="611"/>
      <point x="241" y="633" type="curve"/>
      <point x="225" y="637"/>
      <point x="213" y="650"/>
      <point x="213" y="666" type="curve" smooth="yes"/>
      <point x="213" y="685"/>
      <point x="228" y="700"/>
      <point x="246" y="700" type="curve" smooth="yes"/>
      <point x="264" y="700"/>
      <point x="280" y="686"/>
      <point x="280" y="666" type="curve" smooth="yes"/>
      <point x="280" y="605"/>
      <point x="247" y="564"/>
      <point x="227" y="546" type="curve"/>
    </contour>
  </outline>
</glyph>
<glyph name="perthousand" format="2">
  <advance width="1587" height="962"/>
  <unicode hex="2030"/>
  <outline>
    <component base="percent"/>
    <contour>
      <point x="1315.35" y="277" type="curve" smooth="yes"/>
      <point x="1437.35" y="277"/>
      <point x="1533.35" y="212"/>
      <point x="1533.35" y="132" type="curve" smooth="yes"/>
      <point x="1533.35" y="51"/>
      <point x="1437.35" y="-14"/>
      <point x="1315.35" y="-14" type="curve" smooth="yes"/>
      <point x="1197.35" y="-14"/>
      <point x="1098.35" y="51"/>
      <point x="1098.35" y="132" type="curve" smooth="yes"/>
      <point x="1098.35" y="212"/>
      <point x="1197.35" y="277"/>
    </contour>
    <contour>
      <point x="1315.35" y="227" type="curve" smooth="yes"/>
      <point x="1239.35" y="227"/>
      <point x="1164.35" y="186"/>
      <point x="1164.35" y="132" type="curve" smooth="yes"/>
      <point x="1164.35" y="79"/>
      <point x="1239.35" y="37"/>
      <point x="1315.35" y="37" type="curve" smooth="yes"/>
      <point x="1396.35" y="37"/>
      <point x="1468.35" y="79"/>
      <point x="1468.35" y="132" type="curve" smooth="yes"/>
      <point x="1468.35" y="186"/>
      <point x="1396.35" y="227"/>
    </contour>
  </outline>
</glyph>
<glyph name="trademark" format="2">
  <advance width="644"/>
  <unicode hex="2122"/>
  <outline>
    <contour>
      <point x="192" y="666" type="line"/>
      <point x="192" y="514" type="line"/>
      <point x="143" y="514" type="line"/>
      <point x="143" y="666" type="line"/>
      <point x="35" y="666" type="line"/>
      <point x="35" y="700" type="line"/>
      <point x="351" y="700" type="line"/>
      <point x="441" y="563" type="line"/>
      <point x="528" y="700" type="line"/>
      <point x="591" y="700" type="line"/>
      <point x="591" y="514" type="line"/>
      <point x="545" y="514" type="line"/>
      <point x="545" y="653" type="line"/>
      <point x="456" y="514" type="line"/>
      <point x="425" y="514" type="line"/>
      <point x="338" y="653" type="line"/>
      <point x="338" y="514" type="line"/>
      <point x="287" y="514" type="line"/>
      <point x="287" y="666" type="line"/>
    </contour>
  </outline>
</glyph>
<glyph name="Y_upper_alt" format="1">
  <advance width="723" height="962"/>
  <unicode hex="9997"/>
  <outline>
    <contour>
      <point x="388" y="342" type="line"/>
      <point x="388" y="0" type="line"/>
      <point x="330" y="0" type="line"/>
      <point x="330" y="340" type="line"/>
      <point x="5" y="700" type="line"/>
      <point x="76" y="700" type="line"/>
      <point x="359" y="390" type="line"/>
      <point x="642" y="700" type="line"/>
      <point x="715" y="700" type="line"/>
    </contour>
  </outline>
</glyph>
<glyph name="y_lower_alt" format="1">
  <advance width="717" height="962"/>
  <unicode hex="9998"/>
  <outline>
    <contour>
      <point x="149" y="-209" type="line"/>
      <point x="323" y="48" type="line"/>
      <point x="14" y="500" type="line"/>
      <point x="83" y="500" type="line"/>
      <point x="356" y="99" type="line"/>
      <point x="628" y="500" type="line"/>
      <point x="695" y="500" type="line"/>
      <point x="217" y="-209" type="line"/>
    </contour>
  </outline>
</glyph>
<glyph name="fi" format="2">
  <advance width="503"/>
  <unicode hex="FB01"/>
  <outline>
    <contour>
      <point x="462" y="615" type="line"/>
      <point x="401" y="639"/>
      <point x="331" y="656"/>
      <point x="258" y="656" type="curve" smooth="yes"/>
      <point x="176" y="656"/>
      <point x="96" y="639"/>
      <point x="96" y="574" type="curve" smooth="yes"/>
      <point x="96" y="500" type="line"/>
      <point x="295" y="500" type="line"/>
      <point x="271" y="447" type="line"/>
      <point x="96" y="447" type="line"/>
      <point x="96" y="0" type="line"/>
      <point x="39" y="0" type="line"/>
      <point x="39" y="572" type="line" smooth="yes"/>
      <point x="39" y="672"/>
      <point x="150" y="709"/>
      <point x="258" y="709" type="curve" smooth="yes"/>
      <point x="325" y="709"/>
      <point x="401" y="695"/>
      <point x="462" y="667" type="curve"/>
    </contour>
    <contour>
      <point x="462" y="0" type="line"/>
      <point x="405" y="0" type="line"/>
      <point x="405" y="500" type="line"/>
      <point x="462" y="500" type="line"/>
    </contour>
  </outline>
</glyph>
<glyph name="commaturnedabove" format="1">
  <advance width="267" height="962"/>
  <outline>
    <contour>
      <point x="169" y="718" type="line"/>
      <point x="147" y="693"/>
      <point x="141" y="665"/>
      <point x="139" y="643" type="curve"/>
      <point x="153" y="641"/>
      <point x="166" y="628"/>
      <point x="166" y="610" type="curve" smooth="yes"/>
      <point x="166" y="592"/>
      <point x="151" y="577"/>
      <point x="133" y="577" type="curve" smooth="yes"/>
      <point x="114" y="577"/>
      <point x="99" y="590"/>
      <point x="99" y="610" type="curve" smooth="yes"/>
      <point x="99" y="672"/>
      <point x="133" y="714"/>
      <point x="152" y="730" type="curve"/>
    </contour>
  </outline>
</glyph>
<glyph name="ft" format="1">
  <advance width="707" height="962"/>
  <outline>
    <contour>
      <point x="456" y="133" type="line" smooth="yes"/>
      <point x="456" y="79"/>
      <point x="498" y="45"/>
      <point x="564" y="30" type="curve"/>
      <point x="540" y="-13" type="line"/>
      <point x="429" y="9"/>
      <point x="399" y="54"/>
      <point x="399" y="133" type="curve" smooth="yes"/>
      <point x="399" y="623" type="line"/>
      <point x="354" y="646"/>
      <point x="294" y="650"/>
      <point x="261" y="650" type="curve" smooth="yes"/>
      <point x="185" y="650"/>
      <point x="96" y="640"/>
      <point x="96" y="560" type="curve" smooth="yes"/>
      <point x="96" y="500" type="line"/>
      <point x="294" y="500" type="line"/>
      <point x="270" y="447" type="line"/>
      <point x="96" y="447" type="line"/>
      <point x="96" y="0" type="line"/>
      <point x="39" y="0" type="line"/>
      <point x="39" y="572" type="line" smooth="yes"/>
      <point x="39" y="670"/>
      <point x="139" y="706"/>
      <point x="265" y="706" type="curve" smooth="yes"/>
      <point x="331" y="706"/>
      <point x="394" y="691"/>
      <point x="457" y="656" type="curve"/>
      <point x="457" y="500" type="line"/>
      <point x="677" y="500" type="line"/>
      <point x="652" y="447" type="line"/>
      <point x="456" y="447" type="line"/>
    </contour>
  </outline>
</glyph>
<glyph name="lambda_lambda" format="2">
  <advance width="1264"/>
  <outline>
    <component base="lambda" xOffset="539.25"/>
    <contour>
      <point x="634" y="-1" type="line"/>
      <point x="571" y="-1" type="line"/>
      <point x="367" y="456" type="line"/>
      <point x="310" y="452"/>
      <point x="269" y="423"/>
      <point x="241" y="360" type="curve" smooth="yes"/>
      <point x="82" y="-1" type="line"/>
      <point x="18" y="-1" type="line"/>
      <point x="181" y="371" type="line" smooth="yes"/>
      <point x="207" y="429"/>
      <point x="246" y="484"/>
      <point x="341" y="506" type="curve"/>
      <point x="308" y="578" type="line" smooth="yes"/>
      <point x="288" y="621"/>
      <point x="225" y="654"/>
      <point x="145" y="654" type="curve"/>
      <point x="160" y="697" type="line"/>
      <point x="340" y="695"/>
      <point x="366" y="600"/>
      <point x="385" y="557" type="curve" smooth="yes"/>
    </contour>
  </outline>
</glyph>
